<svg width="124" height="12" viewBox="0 0 124 12" fill="none" xmlns="http://www.w3.org/2000/svg">
<path d="M3.77 9.14C1.94 9.14 0.58 7.72 0.58 5.34C0.58 2.98 1.97 1.54 3.83 1.54C4.72 1.54 5.41 1.97 5.84 2.44L5.33 3.04C4.95 2.63 4.46 2.35 3.84 2.35C2.45 2.35 1.53 3.49 1.53 5.32C1.53 7.17 2.41 8.32 3.81 8.32C4.5 8.32 5.04 8.02 5.51 7.5L6.01 8.08C5.43 8.76 4.72 9.14 3.77 9.14ZM9.40695 9.14C8.06695 9.14 6.88695 8.09 6.88695 6.3C6.88695 4.48 8.06695 3.44 9.40695 3.44C10.737 3.44 11.917 4.48 11.917 6.3C11.917 8.09 10.737 9.14 9.40695 9.14ZM9.40695 8.38C10.347 8.38 10.977 7.54 10.977 6.3C10.977 5.04 10.347 4.2 9.40695 4.2C8.45695 4.2 7.82695 5.04 7.82695 6.3C7.82695 7.54 8.45695 8.38 9.40695 8.38ZM13.3614 11.29V3.57H14.1014L14.1914 4.2H14.2214C14.7114 3.79 15.3114 3.44 15.9414 3.44C17.3514 3.44 18.1014 4.53 18.1014 6.21C18.1014 8.06 16.9914 9.14 15.7414 9.14C15.2514 9.14 14.7414 8.91 14.2514 8.51L14.2714 9.46V11.29H13.3614ZM15.6014 8.37C16.4914 8.37 17.1614 7.56 17.1614 6.22C17.1614 5.01 16.7514 4.2 15.7214 4.2C15.2614 4.2 14.8014 4.46 14.2714 4.95V7.81C14.7614 8.22 15.2414 8.37 15.6014 8.37ZM19.5742 11.35C19.3242 11.35 19.1142 11.31 18.9442 11.24L19.1242 10.51C19.2242 10.55 19.3842 10.59 19.5342 10.59C20.1442 10.59 20.5342 10.09 20.7642 9.42L20.8842 9.01L18.7042 3.57H19.6442L20.7542 6.59C20.9242 7.07 21.1042 7.62 21.2842 8.12H21.3342C21.4842 7.62 21.6442 7.08 21.7842 6.59L22.7642 3.57H23.6542L21.6042 9.46C21.2242 10.53 20.6642 11.35 19.5742 11.35ZM24.7091 9V3.57H25.4491L25.5391 4.56H25.5691C25.9391 3.87 26.4991 3.44 27.1091 3.44C27.3491 3.44 27.5091 3.47 27.6891 3.55L27.5191 4.35C27.3291 4.29 27.2091 4.26 26.9891 4.26C26.5391 4.26 25.9791 4.59 25.6191 5.52V9H24.7091ZM28.586 9V3.57H29.496V9H28.586ZM29.046 2.45C28.686 2.45 28.436 2.22 28.436 1.84C28.436 1.49 28.686 1.26 29.046 1.26C29.396 1.26 29.656 1.49 29.656 1.84C29.656 2.22 29.396 2.45 29.046 2.45ZM33.1699 11.5C31.8399 11.5 30.9199 10.98 30.9199 10.05C30.9199 9.59 31.2199 9.14 31.7199 8.82V8.78C31.4399 8.6 31.2299 8.31 31.2299 7.88C31.2299 7.43 31.5499 7.08 31.8399 6.88V6.84C31.4799 6.55 31.1199 6.03 31.1199 5.38C31.1199 4.18 32.0599 3.44 33.1599 3.44C33.4699 3.44 33.7399 3.5 33.9299 3.57H35.8199V4.28H34.7099C34.9699 4.53 35.1499 4.93 35.1499 5.4C35.1499 6.56 34.2699 7.28 33.1599 7.28C32.8999 7.28 32.5999 7.22 32.3499 7.1C32.1599 7.26 31.9999 7.45 31.9999 7.74C31.9999 8.09 32.2299 8.34 32.9599 8.34H34.0199C35.2799 8.34 35.9099 8.73 35.9099 9.63C35.9099 10.64 34.8399 11.5 33.1699 11.5ZM33.1599 6.67C33.7899 6.67 34.3199 6.16 34.3199 5.38C34.3199 4.58 33.7999 4.1 33.1599 4.1C32.5199 4.1 31.9999 4.57 31.9999 5.38C31.9999 6.16 32.5299 6.67 33.1599 6.67ZM33.2899 10.88C34.3399 10.88 35.0199 10.33 35.0199 9.77C35.0199 9.26 34.6299 9.09 33.9199 9.09H32.9799C32.7699 9.09 32.5199 9.07 32.2699 9C31.8799 9.28 31.7199 9.61 31.7199 9.92C31.7199 10.51 32.3099 10.88 33.2899 10.88ZM36.9845 9V1.05H37.8945V3.22L37.8645 4.34C38.3645 3.85 38.9145 3.44 39.6645 3.44C40.8045 3.44 41.3245 4.18 41.3245 5.56V9H40.4045V5.68C40.4045 4.66 40.0945 4.23 39.3745 4.23C38.8245 4.23 38.4345 4.52 37.8945 5.06V9H36.9845ZM44.7587 9.14C43.5987 9.14 43.2187 8.41 43.2187 7.33V4.31H42.4087V3.63L43.2587 3.57L43.3587 2.04H44.1287V3.57H45.5987V4.31H44.1287V7.35C44.1287 8.01 44.3387 8.4 44.9687 8.4C45.1587 8.4 45.4087 8.32 45.5787 8.25L45.7587 8.93C45.4587 9.04 45.0987 9.14 44.7587 9.14ZM50.5345 10.97C49.6045 9.47 49.0545 7.87 49.0545 5.9C49.0545 3.94 49.6045 2.32 50.5345 0.82L51.0945 1.09C50.2345 2.51 49.8145 4.2 49.8145 5.9C49.8145 7.6 50.2345 9.29 51.0945 10.71L50.5345 10.97ZM55.2934 9.14C53.4634 9.14 52.1034 7.72 52.1034 5.34C52.1034 2.98 53.4934 1.54 55.3534 1.54C56.2434 1.54 56.9334 1.97 57.3634 2.44L56.8534 3.04C56.4734 2.63 55.9834 2.35 55.3634 2.35C53.9734 2.35 53.0534 3.49 53.0534 5.32C53.0534 7.17 53.9334 8.32 55.3334 8.32C56.0234 8.32 56.5634 8.02 57.0334 7.5L57.5334 8.08C56.9534 8.76 56.2434 9.14 55.2934 9.14ZM58.8904 10.97L58.3204 10.71C59.1804 9.29 59.6004 7.6 59.6004 5.9C59.6004 4.2 59.1804 2.51 58.3204 1.09L58.8904 0.82C59.8104 2.32 60.3604 3.94 60.3604 5.9C60.3604 7.87 59.8104 9.47 58.8904 10.97ZM63.9556 9V8.47C66.1056 6.33 67.3056 5.04 67.3056 3.87C67.3056 3.06 66.8756 2.48 65.9656 2.48C65.3656 2.48 64.8456 2.86 64.4356 3.34L63.9056 2.82C64.5056 2.17 65.1456 1.75 66.0756 1.75C67.3856 1.75 68.2056 2.57 68.2056 3.84C68.2056 5.18 66.9756 6.51 65.2856 8.29C65.6656 8.25 66.1156 8.22 66.4856 8.22H68.5556V9H63.9556ZM71.8425 9.14C70.4125 9.14 69.5525 7.81 69.5525 5.42C69.5525 3.03 70.4125 1.75 71.8425 1.75C73.2525 1.75 74.1125 3.03 74.1125 5.42C74.1125 7.81 73.2525 9.14 71.8425 9.14ZM71.8425 8.4C72.6725 8.4 73.2325 7.51 73.2325 5.42C73.2325 3.32 72.6725 2.48 71.8425 2.48C71.0025 2.48 70.4325 3.32 70.4325 5.42C70.4325 7.51 71.0025 8.4 71.8425 8.4ZM75.0494 9V8.47C77.1994 6.33 78.3994 5.04 78.3994 3.87C78.3994 3.06 77.9694 2.48 77.0594 2.48C76.4594 2.48 75.9394 2.86 75.5294 3.34L74.9994 2.82C75.5994 2.17 76.2394 1.75 77.1694 1.75C78.4794 1.75 79.2994 2.57 79.2994 3.84C79.2994 5.18 78.0694 6.51 76.3794 8.29C76.7594 8.25 77.2094 8.22 77.5794 8.22H79.6494V9H75.0494ZM82.7863 9.14C81.6363 9.14 80.9263 8.66 80.4463 8.13L80.9063 7.53C81.3363 7.98 81.8863 8.38 82.7262 8.38C83.5963 8.38 84.2163 7.87 84.2163 7.07C84.2163 6.22 83.6263 5.65 81.9363 5.65V4.95C83.4463 4.95 83.9563 4.36 83.9563 3.61C83.9563 2.92 83.4863 2.48 82.7262 2.48C82.1363 2.48 81.6163 2.79 81.2063 3.21L80.7163 2.63C81.2663 2.12 81.9163 1.75 82.7563 1.75C83.9863 1.75 84.8863 2.4 84.8863 3.55C84.8863 4.41 84.3663 4.96 83.5863 5.25V5.29C84.4463 5.49 85.1463 6.13 85.1463 7.1C85.1463 8.37 84.0963 9.14 82.7863 9.14ZM90.4595 9V2.45H88.2495V1.67H93.6095V2.45H91.3995V9H90.4595ZM93.4773 9L95.9573 1.67H96.9973L99.4773 9H98.5073L97.2173 4.9C96.9573 4.08 96.7273 3.28 96.4873 2.43H96.4473C96.2073 3.28 95.9773 4.08 95.7073 4.9L94.4173 9H93.4773ZM94.7773 6.76V6.03H98.1573V6.76H94.7773ZM100.531 9V1.67H101.461V9H100.531ZM104.271 9L102.711 1.67H103.661L104.431 5.67C104.581 6.45 104.721 7.24 104.871 8.04H104.911C105.081 7.24 105.261 6.45 105.441 5.67L106.451 1.67H107.291L108.311 5.67C108.491 6.45 108.661 7.24 108.841 8.04H108.891C109.031 7.24 109.171 6.45 109.301 5.67L110.081 1.67H110.971L109.451 9H108.331L107.231 4.58C107.101 4.01 106.981 3.48 106.871 2.91H106.831C106.711 3.48 106.581 4.01 106.461 4.58L105.371 9H104.271ZM111.27 9L113.75 1.67H114.79L117.27 9H116.3L115.01 4.9C114.75 4.08 114.52 3.28 114.28 2.43H114.24C114 3.28 113.77 4.08 113.5 4.9L112.21 9H111.27ZM112.57 6.76V6.03H115.95V6.76H112.57ZM118.324 9V1.67H119.274L121.944 6.29L122.734 7.81H122.784C122.724 7.07 122.654 6.24 122.654 5.48V1.67H123.544V9H122.584L119.924 4.38L119.134 2.87H119.084C119.134 3.61 119.204 4.38 119.204 5.16V9H118.324Z" fill="white"/>
</svg>
